<?xml version="1.0" standalone="no"?>
<!DOCTYPE svg PUBLIC "-//W3C//DTD SVG 20010904//EN"
 "http://www.w3.org/TR/2001/REC-SVG-20010904/DTD/svg10.dtd">
<svg version="1.0" xmlns="http://www.w3.org/2000/svg"
 width="850.000000pt" height="850.000000pt" viewBox="0 0 850.000000 850.000000"
 preserveAspectRatio="xMidYMid meet">

<g transform="translate(0.000000,850.000000) scale(0.100000,-0.100000)"
fill="#000000" stroke="none">
<path d="M5892 7746 c-32 -30 -56 -65 -71 -103 -37 -89 -151 -313 -161 -313
-5 0 -87 29 -182 65 -326 122 -547 165 -1003 196 -319 21 -706 -10 -1000 -80
-264 -64 -466 -128 -648 -208 l-59 -25 -29 27 c-15 16 -54 43 -86 61 -58 32
-59 33 -133 181 -80 158 -99 179 -149 162 -35 -12 -116 -92 -144 -142 -16 -30
-26 -37 -42 -33 -11 2 -38 9 -60 15 -45 12 -215 0 -343 -25 -42 -8 -106 -19
-142 -25 -36 -6 -70 -13 -77 -15 -18 -5 -108 -132 -205 -289 -87 -142 -170
-272 -185 -290 -33 -39 -107 -165 -115 -194 -12 -42 3 -178 33 -295 11 -43 17
-82 12 -87 -4 -4 -34 -14 -66 -22 -57 -15 -58 -15 -80 8 -32 32 -228 164 -318
213 -93 51 -128 53 -163 11 -22 -26 -26 -40 -26 -99 0 -38 5 -104 11 -147 11
-83 61 -307 85 -383 7 -25 35 -112 60 -195 52 -168 91 -253 130 -284 33 -26
151 -62 227 -69 32 -2 60 -8 62 -12 6 -10 -128 -229 -218 -357 -40 -56 -151
-214 -247 -349 -171 -243 -213 -304 -206 -304 2 0 -1 -24 -5 -52 -11 -67 2
-103 43 -117 45 -16 187 -13 246 4 29 9 57 13 62 10 6 -3 10 -36 10 -72 0 -75
31 -267 59 -363 36 -126 153 -424 211 -540 65 -129 214 -320 261 -335 21 -7
21 -10 15 -244 -11 -385 -20 -463 -91 -821 -96 -483 -215 -839 -412 -1235 -81
-163 -156 -297 -250 -447 -40 -65 -73 -120 -73 -123 0 -3 54 -5 119 -5 86 0
121 3 124 13 4 9 6 9 6 0 1 -10 158 -13 750 -13 l749 0 25 72 c106 304 228
584 363 828 l63 115 44 -3 c62 -5 136 29 192 89 25 27 48 62 52 79 4 24 19 39
62 67 80 50 125 96 152 156 13 29 25 54 26 56 2 3 13 -5 26 -16 12 -11 32 -26
45 -32 15 -8 22 -21 22 -42 0 -32 34 -92 71 -125 13 -12 56 -36 94 -53 138
-63 175 -86 200 -123 14 -21 25 -42 25 -47 0 -5 -51 -44 -112 -87 -172 -119
-313 -228 -421 -328 -54 -50 -123 -104 -153 -120 -69 -37 -174 -132 -232 -211
l-45 -60 7 53 c14 106 103 326 211 521 30 55 35 72 34 125 -2 92 -10 120 -37
124 -30 5 -45 -38 -37 -105 6 -51 5 -53 -43 -115 -76 -99 -126 -190 -183 -335
-47 -121 -69 -227 -76 -360 l-6 -123 61 0 61 0 -6 36 c-5 29 -1 40 24 67 16
18 46 54 67 80 73 92 244 247 273 247 7 0 61 -47 120 -104 60 -57 168 -154
242 -215 l134 -111 96 0 96 1 -40 34 c-39 34 -89 73 -254 200 -207 159 -229
178 -224 191 3 7 46 41 96 74 51 33 97 64 102 68 22 18 102 62 113 62 6 0 14
-15 17 -33 22 -98 121 -202 213 -222 37 -8 37 -5 17 -108 -15 -79 -20 -222 -9
-251 5 -12 20 -16 58 -16 l52 0 -4 113 c-3 80 0 136 12 191 15 72 19 81 63
121 27 23 64 71 83 106 32 59 35 70 34 144 -1 54 -8 97 -23 135 -11 30 -17 57
-13 61 11 9 239 -123 492 -287 63 -40 138 -86 165 -100 28 -15 51 -28 53 -29
2 -1 -57 -63 -131 -136 -120 -121 -257 -285 -257 -310 0 -5 25 -9 56 -9 54 0
57 1 97 47 92 106 402 413 418 413 40 0 262 -107 355 -171 89 -62 196 -165
244 -237 l35 -52 78 0 c70 0 77 2 77 19 0 31 19 35 32 7 10 -24 16 -26 75 -26
34 0 63 4 63 9 0 5 -3 11 -7 13 -8 3 -69 81 -120 151 -18 24 -23 45 -23 90 0
33 -7 86 -15 119 l-16 59 53 47 c29 26 83 76 121 112 38 36 73 67 78 68 5 2
49 -12 98 -32 49 -20 106 -37 129 -39 43 -3 92 -30 92 -50 0 -20 -69 -82 -134
-121 -59 -35 -62 -36 -166 -36 -89 0 -109 -3 -123 -17 -46 -53 -7 -124 101
-181 132 -71 286 -80 405 -24 l66 31 21 -56 c12 -31 26 -76 33 -100 l11 -43
578 0 c379 0 578 3 578 10 0 6 -3 10 -7 10 -5 0 -13 10 -19 23 -6 12 -65 128
-130 258 -159 315 -226 469 -284 654 -12 39 -26 80 -31 93 -5 13 -9 31 -9 41
0 10 -7 31 -15 47 -8 17 -26 74 -41 129 -14 54 -29 106 -34 114 -18 37 -101
473 -139 736 -12 83 -29 192 -37 243 -7 51 -14 113 -14 136 0 23 -3 46 -7 50
-8 8 -9 17 -19 181 -10 164 -10 183 6 220 7 17 13 33 12 37 -1 5 3 7 9 5 10
-2 36 37 84 127 8 16 15 37 15 48 0 10 4 18 9 18 5 0 13 9 16 20 3 11 12 20
20 20 15 0 25 22 25 52 0 18 20 69 51 130 5 10 9 27 9 38 0 18 28 88 40 100
16 16 28 50 24 67 -3 11 1 26 8 34 8 8 22 31 31 52 10 20 22 37 27 37 6 0 10
12 10 28 1 15 7 38 15 52 8 14 14 36 15 51 0 27 21 79 32 79 3 0 9 24 13 53 4
28 11 57 15 62 9 12 21 67 24 117 2 20 15 57 30 82 23 40 26 54 26 145 0 99 0
101 23 101 16 0 28 -9 36 -27 13 -28 31 -894 29 -1368 -1 -234 -1 -238 -13
-155 -7 47 -18 106 -24 131 -6 25 -13 75 -16 110 -3 35 -10 89 -15 119 -5 30
-17 111 -25 180 -9 69 -17 134 -19 145 -2 11 -4 30 -5 41 0 12 -10 32 -20 45
-19 23 -19 24 -40 5 -19 -17 -21 -30 -21 -132 0 -119 31 -476 54 -629 8 -49
17 -117 21 -150 9 -88 11 -100 34 -210 12 -55 28 -143 37 -195 8 -52 17 -103
20 -112 3 -9 7 -27 9 -40 20 -100 37 -183 50 -238 8 -36 14 -82 15 -103 0 -21
6 -70 14 -110 30 -160 38 -206 40 -253 1 -30 12 -69 29 -102 27 -54 43 -104
78 -247 11 -44 26 -90 34 -102 8 -12 15 -32 15 -43 0 -11 5 -28 10 -38 6 -9
25 -63 44 -119 18 -56 38 -108 43 -115 6 -7 18 -40 27 -73 10 -33 23 -73 31
-90 27 -61 48 -114 101 -255 30 -80 66 -167 79 -195 13 -27 36 -78 51 -112
l28 -63 73 0 c40 0 73 1 73 3 0 8 -121 361 -138 402 -35 84 -211 572 -268 745
-115 344 -188 684 -213 990 -6 69 -13 490 -16 935 -6 926 -21 1371 -50 1552
-5 28 0 38 35 75 99 103 149 208 159 333 l6 80 40 3 c22 2 57 -2 77 -9 33 -10
41 -9 74 10 69 41 357 380 374 441 18 63 4 229 -29 360 -28 106 -116 360 -147
422 -49 97 -84 115 -159 83 -41 -17 -60 -55 -107 -210 -48 -163 -62 -190 -96
-193 -23 -2 -36 5 -71 44 -34 39 -41 53 -36 73 20 82 25 139 31 357 6 205 5
245 -8 270 -75 144 -174 305 -215 349 -10 11 -57 65 -104 120 -130 151 -230
255 -377 392 -153 142 -167 147 -243 90 -24 -19 -100 -66 -169 -106 -116 -67
-247 -156 -296 -202 -11 -10 -25 -19 -31 -19 -6 0 -28 33 -49 73 -73 142 -178
268 -256 308 -54 28 -74 24 -126 -25z m156 -259 c99 -163 140 -283 162 -474
11 -99 13 -233 4 -233 -4 0 -38 32 -76 70 -38 39 -95 88 -126 109 -31 22 -66
48 -77 58 -11 10 -46 39 -78 63 -48 35 -57 47 -52 64 4 12 10 39 14 61 4 22
12 49 19 61 9 18 106 253 125 308 10 26 25 11 85 -87z m1043 -80 c87 -84 191
-198 235 -256 96 -125 116 -152 175 -227 25 -33 59 -87 76 -120 17 -34 43 -78
57 -97 l28 -36 -21 -213 c-28 -290 -25 -355 19 -443 41 -80 107 -155 138 -155
33 0 37 -19 9 -48 -13 -15 -48 -62 -77 -106 -110 -165 -258 -321 -314 -331
-68 -13 -116 26 -116 94 0 22 54 190 84 261 3 8 23 69 45 135 21 66 42 127 45
136 5 11 1 16 -10 16 -9 0 -19 -9 -22 -19 -3 -13 -14 -18 -41 -18 -40 0 -51
-6 -67 -34 -6 -11 -22 -23 -36 -27 -14 -4 -39 -16 -54 -28 -35 -26 -148 -56
-172 -45 -9 4 -23 8 -30 10 -22 4 -24 11 -12 33 6 12 7 21 3 21 -9 0 -46 84
-50 115 -2 11 -8 24 -13 29 -6 6 -10 25 -10 43 0 18 -4 41 -9 51 -30 59 -41
122 -39 225 2 107 7 125 41 125 21 1 17 12 -6 21 -14 6 -31 20 -37 32 -17 30
-3 106 23 132 12 12 21 25 20 30 -2 4 2 7 7 7 6 0 10 5 10 11 0 5 -4 7 -10 4
-6 -4 -7 6 -4 25 5 21 2 36 -10 49 -10 11 -17 34 -16 57 1 22 -3 115 -7 208
-7 142 -11 170 -26 181 -10 7 -15 19 -11 29 4 9 1 16 -6 16 -10 0 -10 3 0 15
7 8 10 25 6 40 -5 20 -3 23 11 18 17 -5 17 -5 2 11 -17 18 -16 18 -75 -13 -6
-3 -37 -24 -69 -46 -32 -22 -65 -44 -74 -50 -9 -5 -18 -13 -21 -16 -9 -11 -85
-56 -174 -103 -96 -50 -116 -50 -100 3 6 21 46 60 134 131 69 56 145 116 170
133 58 40 222 135 235 136 6 0 80 -68 166 -152z m-4700 38 c13 -25 42 -68 66
-96 23 -28 50 -66 59 -86 10 -19 43 -62 75 -96 32 -34 55 -64 51 -68 -4 -3
-47 -32 -96 -63 -77 -51 -317 -243 -332 -267 -37 -61 -27 171 17 366 18 80 60
206 85 255 13 25 26 57 30 73 9 38 19 34 45 -18z m2316 -68 c5 -3 52 -11 104
-17 93 -11 196 -33 234 -49 54 -24 113 -49 143 -62 17 -8 32 -17 32 -20 0 -4
11 -6 24 -6 13 0 50 -16 82 -36 33 -19 75 -40 94 -46 19 -6 67 -32 105 -56 39
-24 90 -55 115 -69 100 -54 194 -121 288 -204 20 -19 55 -45 77 -59 22 -14
123 -109 224 -210 141 -142 181 -187 170 -194 -13 -8 -5 -13 15 -10 10 2 61
-53 84 -91 9 -16 19 -28 23 -28 5 0 87 -114 149 -209 14 -21 37 -56 51 -77 14
-22 44 -73 65 -114 21 -41 45 -81 51 -88 7 -8 24 -38 38 -68 56 -121 73 -160
79 -179 3 -11 24 -39 45 -62 29 -30 42 -55 50 -95 6 -29 19 -93 30 -143 17
-76 20 -128 20 -325 1 -200 -15 -462 -34 -585 -3 -16 -7 -57 -11 -90 -3 -33
-8 -67 -11 -75 -3 -8 -7 -28 -9 -45 -4 -26 -14 -90 -54 -320 -9 -54 -33 -131
-56 -182 -8 -17 -14 -38 -14 -46 0 -8 -10 -27 -22 -43 -13 -15 -17 -25 -11
-21 9 6 8 0 -1 -20 -8 -15 -22 -45 -32 -65 -10 -21 -22 -38 -25 -38 -4 0 -11
-15 -15 -32 -3 -18 -15 -40 -25 -49 -11 -9 -19 -19 -19 -23 0 -6 -149 -154
-187 -186 -28 -23 -77 -62 -119 -95 -85 -66 -352 -343 -392 -405 -22 -36 -45
-69 -49 -75 -5 -5 -16 -22 -26 -37 -35 -56 -56 -18 -31 58 9 27 19 67 24 89
15 75 40 156 64 208 47 102 73 162 81 187 4 14 14 41 22 60 20 46 28 68 44
110 7 19 23 58 35 85 37 82 74 186 74 206 0 11 4 19 9 19 5 0 11 19 15 42 8
46 -2 62 -46 72 -28 6 -30 3 -62 -74 -3 -8 -15 -28 -26 -45 -10 -16 -27 -46
-37 -65 -28 -56 -70 -114 -92 -128 -12 -7 -21 -17 -21 -22 0 -30 -235 -230
-269 -230 -6 0 -11 -3 -11 -7 0 -9 -49 -33 -67 -33 -20 0 -15 13 12 34 14 10
25 24 25 31 0 6 9 20 21 31 12 10 30 36 40 57 11 20 23 37 27 37 9 0 10 3 89
161 35 68 63 129 63 135 0 7 7 25 15 40 8 16 15 37 15 46 0 9 5 20 10 23 6 4
8 10 5 14 -2 5 9 53 26 107 24 77 33 129 41 243 14 201 14 650 -1 801 -6 69
-18 204 -25 300 -15 193 -18 208 -81 460 -27 110 -104 305 -139 353 -15 20
-28 27 -46 25 -23 -3 -25 -6 -24 -56 2 -44 24 -133 65 -252 4 -14 11 -43 14
-65 4 -22 11 -54 16 -72 6 -18 14 -67 19 -110 6 -43 14 -100 20 -128 6 -27 14
-99 20 -160 5 -60 15 -144 21 -185 16 -104 24 -554 10 -545 -6 3 -29 33 -52
66 -22 33 -47 63 -54 66 -8 2 -17 14 -21 25 -3 11 -13 27 -21 36 -43 50 -124
171 -129 195 -4 15 -10 27 -14 27 -14 0 -213 310 -230 360 -3 8 -14 33 -24 55
-61 133 -81 178 -81 184 -1 3 -9 22 -20 41 -10 19 -22 49 -26 65 -11 44 -60
187 -72 210 -9 17 -59 193 -88 310 -6 21 -14 44 -19 50 -5 6 -9 99 -9 206 1
205 -6 255 -34 273 -23 15 -51 -3 -55 -35 -2 -13 -8 -28 -12 -34 -5 -5 -11
-68 -15 -140 -4 -71 -16 -179 -27 -240 -11 -60 -23 -136 -25 -167 -3 -32 -8
-58 -13 -58 -4 0 -13 -45 -20 -100 -7 -55 -16 -100 -20 -100 -4 0 -10 -12 -13
-27 -3 -16 -16 -71 -28 -123 -29 -129 -37 -170 -54 -274 -8 -50 -19 -92 -24
-95 -4 -3 -11 -26 -14 -51 -9 -73 -37 -204 -47 -222 -6 -10 -10 -41 -10 -69 0
-27 -5 -59 -10 -69 -6 -10 -15 -54 -21 -97 -6 -43 -14 -82 -18 -88 -15 -18
-23 -89 -30 -242 l-6 -153 -35 31 c-19 17 -55 47 -80 67 -24 20 -133 125 -242
233 -136 136 -198 203 -198 218 0 12 -4 20 -9 17 -19 -12 -191 253 -191 294 0
26 -45 53 -69 40 -30 -16 -44 -126 -36 -278 4 -70 11 -131 15 -137 4 -5 10
-39 14 -75 3 -36 15 -90 26 -120 11 -29 18 -55 16 -57 -2 -2 -15 11 -30 29
-14 18 -31 38 -36 45 -6 7 -10 14 -10 17 0 3 -17 32 -38 65 -22 32 -44 74 -51
93 -7 18 -23 58 -36 88 -43 101 -56 142 -50 161 4 10 2 19 -3 19 -5 0 -17 37
-28 83 -15 66 -18 123 -18 292 1 220 12 405 24 405 4 0 10 33 13 73 9 122 38
294 68 393 5 17 9 43 9 59 0 27 41 208 80 352 11 39 20 80 20 91 0 11 10 39
23 63 17 33 19 43 8 47 -11 4 -11 6 0 13 9 6 -1 9 -29 9 -37 0 -45 -4 -60 -30
-9 -16 -20 -30 -24 -30 -5 0 -8 -8 -8 -17 0 -10 -7 -31 -15 -47 -8 -15 -15
-38 -15 -50 0 -12 -4 -26 -9 -31 -9 -11 -71 -204 -75 -237 -5 -36 -24 -78 -51
-112 -48 -60 -90 -109 -107 -125 -10 -8 -18 -24 -18 -34 0 -10 -13 -31 -29
-47 -15 -16 -35 -44 -44 -62 -13 -27 -98 -162 -137 -218 -21 -30 -58 -97 -116
-210 -33 -63 -62 -117 -65 -120 -3 -3 -21 -45 -39 -95 -19 -49 -39 -99 -46
-110 -6 -11 -28 -64 -49 -117 -20 -54 -40 -98 -44 -98 -3 0 -6 -17 -6 -37 0
-37 0 -38 -45 -40 -25 -2 -87 -10 -139 -19 -103 -17 -110 -14 -111 36 0 14
-14 75 -31 135 -64 228 -65 408 -5 637 9 32 78 158 87 158 5 0 17 17 27 38 9
20 20 39 23 42 3 3 17 23 32 44 20 30 24 43 16 58 -21 39 -79 17 -109 -41 -10
-21 -26 -41 -35 -45 -9 -3 -14 -10 -11 -15 3 -4 -3 -16 -13 -25 -11 -10 -22
-28 -25 -42 -4 -13 -11 -24 -16 -24 -6 0 -10 -7 -10 -15 0 -8 -4 -15 -10 -15
-5 0 -19 -18 -30 -40 -11 -22 -25 -40 -30 -40 -6 0 -10 -7 -10 -15 0 -9 -5
-21 -11 -28 -6 -7 -25 -36 -42 -66 -41 -69 -43 -72 -99 -157 -26 -39 -57 -93
-70 -120 -13 -27 -26 -51 -30 -54 -10 -8 -58 -106 -58 -120 0 -6 -5 -21 -12
-33 -16 -28 -56 -141 -69 -192 -6 -22 -15 -48 -20 -58 -5 -9 -12 -39 -15 -65
-3 -26 -10 -58 -15 -72 -48 -129 -83 -716 -52 -880 7 -36 17 -94 23 -128 6
-35 20 -79 31 -98 10 -19 16 -34 14 -34 -3 0 5 -21 19 -47 13 -27 27 -58 31
-71 4 -13 25 -55 47 -93 22 -39 39 -72 36 -74 -2 -2 -25 16 -51 40 -26 25 -51
45 -56 45 -13 0 -101 77 -95 82 2 3 -13 21 -33 41 -21 19 -46 47 -56 61 -20
29 -48 34 -67 11 -7 -8 -18 -15 -25 -15 -9 0 -12 -42 -11 -172 1 -157 3 -178
24 -222 12 -27 22 -56 22 -65 0 -19 51 -127 87 -183 26 -42 24 -45 -15 -23
-15 8 -53 26 -85 40 -31 15 -61 35 -67 45 -5 9 -31 24 -57 31 -35 10 -66 31
-116 79 -78 74 -207 224 -207 239 0 6 -4 11 -10 11 -5 0 -10 6 -10 13 0 8 -9
22 -20 32 -11 10 -20 22 -20 28 0 5 -9 21 -19 35 -39 55 -101 189 -114 248 -8
33 -19 69 -25 80 -10 19 -17 59 -27 159 -3 28 -10 77 -15 110 -20 136 -22 189
-11 289 7 58 10 118 6 134 -5 26 -11 30 -51 36 -28 3 -58 1 -82 -8 -102 -38
-234 -78 -239 -72 -3 3 24 36 60 73 36 38 81 87 99 111 18 23 36 42 40 42 4 0
8 5 8 11 0 7 19 33 42 58 24 26 61 69 83 96 22 27 45 54 51 60 6 6 18 24 27
40 9 17 32 48 52 70 20 22 46 57 58 78 11 20 24 37 29 37 4 0 8 7 8 15 0 8 3
15 8 15 4 0 12 10 17 23 6 12 16 21 23 20 6 -2 9 3 6 10 -2 7 2 21 11 32 13
17 16 18 25 5 9 -12 10 -8 6 15 -5 21 0 40 16 65 24 38 40 75 69 165 16 48
173 302 224 362 5 6 24 31 40 54 39 56 187 253 194 259 3 3 19 24 35 47 15 23
64 79 107 125 44 45 79 84 79 85 0 4 23 30 114 133 75 84 266 267 312 300 23
16 45 26 49 22 3 -4 5 -2 3 4 -5 18 77 84 195 157 60 37 112 67 117 67 5 0 10
5 12 12 3 7 16 13 31 13 15 1 37 11 50 22 27 25 119 72 212 108 39 15 84 33
100 40 17 7 53 20 80 30 28 9 57 20 65 23 20 7 199 41 272 52 31 4 60 10 65
13 5 3 43 7 86 8 42 2 77 7 77 11 0 4 48 9 108 10 193 5 748 2 759 -5z m-2583
-19 c-23 -77 -29 -83 -95 -103 -35 -10 -68 -21 -74 -24 -5 -3 -44 -7 -85 -8
-146 -6 -240 -35 -240 -72 0 -13 87 -350 99 -386 6 -16 18 -57 28 -90 16 -58
43 -120 43 -101 0 5 9 1 20 -9 11 -10 20 -26 20 -35 0 -16 -35 -52 -76 -77
-75 -47 -165 -100 -199 -119 -99 -52 -161 -88 -175 -99 -8 -7 -27 -15 -42 -19
-16 -3 -28 -11 -28 -16 0 -6 13 -37 29 -68 16 -32 35 -86 42 -121 12 -54 11
-65 -3 -89 -9 -15 -22 -27 -29 -27 -7 0 -30 25 -50 55 -21 30 -43 61 -49 67
-6 7 -21 34 -35 60 l-24 47 -6 -29 c-4 -17 -20 -73 -36 -125 -15 -52 -33 -117
-39 -145 -13 -59 -25 -75 -56 -75 -17 0 -24 -6 -24 -20 0 -12 -7 -32 -16 -45
-9 -13 -13 -32 -10 -42 3 -10 2 -24 -3 -32 -10 -16 -31 -6 -31 15 0 8 -4 14
-10 14 -5 0 -10 11 -10 25 0 14 -7 28 -15 31 -8 3 -17 25 -20 52 -4 26 -10 56
-15 67 -5 11 -8 47 -7 80 1 43 -3 67 -16 85 -9 13 -17 19 -17 13 0 -6 -15 -11
-34 -11 -34 0 -52 13 -87 68 -9 14 -28 37 -41 53 -61 70 -119 197 -89 197 6 0
11 -4 11 -9 0 -13 127 -113 200 -157 36 -21 68 -43 72 -48 12 -17 109 2 125
24 8 11 21 20 29 20 8 0 17 7 21 15 7 19 111 87 122 81 4 -3 17 1 27 9 18 12
19 28 19 207 l0 193 28 3 c24 3 26 5 13 15 -13 11 -13 17 6 57 33 72 90 160
99 154 9 -5 10 -4 14 31 6 52 29 105 88 203 36 59 75 127 87 152 13 25 36 64
52 88 l29 42 235 0 235 0 -7 -22z m1316 -1477 c0 -5 -9 -51 -19 -102 -23 -114
-48 -323 -57 -479 -7 -124 7 -325 32 -455 37 -189 129 -413 210 -512 47 -57
146 -131 241 -178 40 -20 75 -41 78 -46 11 -16 45 -10 45 9 0 9 -13 60 -29
112 -47 150 -91 336 -91 382 0 17 2 18 15 8 8 -7 15 -19 15 -26 0 -8 4 -14 8
-14 5 0 13 -10 19 -22 23 -49 236 -278 348 -373 52 -44 256 -170 313 -194 37
-16 40 -36 15 -102 -25 -67 -24 -284 1 -364 35 -109 111 -211 205 -274 113
-77 234 -125 381 -151 159 -29 354 36 507 167 30 25 56 43 59 40 3 -3 -18 -40
-48 -83 -29 -42 -63 -91 -75 -109 -12 -18 -53 -74 -92 -125 -76 -99 -89 -128
-75 -169 20 -55 75 -60 229 -21 74 19 223 86 256 116 8 8 18 14 21 14 3 0 -12
-46 -33 -102 -38 -100 -64 -185 -79 -263 -9 -42 -13 -46 -145 -153 -96 -78
-126 -99 -230 -164 -282 -176 -603 -283 -950 -318 -166 -17 -268 -36 -311 -59
-21 -12 -45 -21 -52 -21 -33 0 -140 -61 -175 -99 -21 -22 -45 -41 -53 -41 -19
0 -101 -58 -108 -76 -10 -25 -32 -15 -50 22 -26 56 -66 104 -108 130 -21 13
-46 41 -57 61 -36 71 -66 90 -232 142 -230 73 -410 146 -623 253 -96 48 -257
141 -300 172 -17 12 -76 55 -131 96 -218 159 -384 356 -487 580 -40 88 -85
217 -77 224 3 3 28 -16 57 -42 65 -60 161 -112 282 -152 52 -18 99 -36 105
-41 15 -15 42 -10 49 8 5 12 -11 34 -54 78 -46 46 -68 79 -94 140 -89 213
-133 432 -143 720 l-6 170 52 65 c201 253 446 382 751 397 133 6 265 -13 360
-51 33 -14 100 -52 150 -85 103 -69 147 -78 174 -39 46 66 0 129 -159 217
-108 60 -192 89 -300 106 -60 9 -79 15 -77 26 6 24 113 293 121 304 4 5 15 28
23 50 49 125 181 371 339 632 40 67 59 87 59 64z m4560 -10 c0 -30 -94 -47
-111 -20 -6 11 -1 15 24 20 50 10 87 10 87 0z m-2921 -271 c103 -396 254 -729
441 -970 88 -114 89 -116 39 -87 -99 58 -272 107 -379 107 -96 0 -268 -38
-340 -75 -16 -8 -31 -12 -33 -7 -4 6 50 293 104 547 106 505 119 570 119 596
0 47 20 2 49 -111z m-2819 -357 c0 -134 39 -299 93 -392 33 -58 49 -92 46 -95
-2 -1 -39 -19 -81 -38 -100 -48 -183 -104 -270 -186 l-71 -67 7 70 c18 185
134 597 185 659 14 17 37 52 51 79 13 26 28 47 32 47 5 0 8 -35 8 -77z m5361
-80 c5 -5 12 -45 15 -89 5 -71 3 -84 -21 -137 -32 -68 -97 -139 -147 -160 -49
-20 -128 -32 -128 -19 0 21 30 93 93 220 37 73 69 149 73 168 l7 36 49 -4 c27
-3 53 -9 59 -15z m-380 -575 c3 -31 -3 -74 -12 -82 -5 -6 -9 10 -9 42 0 29 5
52 10 52 6 0 10 -6 11 -12z m-1881 -162 c123 -30 186 -64 260 -139 92 -92 202
-239 234 -311 14 -31 34 -70 46 -86 23 -32 25 -71 9 -136 -12 -48 -29 -44 -29
8 0 46 -60 195 -107 266 -92 139 -214 240 -341 284 -84 29 -250 31 -352 4
-102 -27 -290 -123 -347 -176 -35 -34 -59 -40 -48 -12 19 46 43 122 54 169
l13 51 91 32 c153 54 248 71 362 65 55 -3 125 -11 155 -19z m43 -241 c77 -31
193 -133 248 -217 20 -32 49 -92 64 -133 24 -66 27 -85 23 -167 -3 -79 -8
-101 -33 -148 -82 -152 -288 -282 -482 -305 -56 -6 -69 -4 -149 29 -175 72
-293 174 -350 304 -31 70 -34 86 -34 175 0 115 19 199 63 281 30 57 37 62 132
112 133 70 212 92 347 93 94 1 116 -2 171 -24z m-3898 -1414 l62 -30 8 -112
c6 -101 42 -279 58 -296 4 -3 7 -14 7 -24 0 -10 11 -43 25 -73 14 -30 25 -61
25 -68 0 -8 16 -40 35 -72 19 -32 35 -63 35 -68 0 -6 11 -19 24 -29 14 -11 28
-34 31 -52 4 -17 11 -37 16 -42 10 -14 25 -113 21 -142 -2 -13 -8 -23 -13 -23
-5 0 -38 -14 -72 -30 -35 -17 -67 -30 -70 -30 -19 0 -52 -43 -84 -107 -30 -62
-35 -83 -37 -150 0 -43 4 -91 11 -108 6 -16 14 -51 17 -76 4 -38 0 -53 -20
-82 -13 -20 -24 -42 -24 -50 0 -8 -9 -24 -20 -37 -11 -13 -20 -27 -20 -32 0
-13 -81 -138 -89 -138 -4 0 -14 -18 -21 -40 -7 -22 -20 -46 -28 -52 -8 -7 -38
-49 -67 -94 -30 -45 -58 -84 -63 -85 -5 -2 -24 -24 -43 -49 -64 -84 -134 -165
-182 -211 -20 -20 -37 -40 -37 -45 0 -13 -290 -298 -296 -291 -4 4 50 109 76
147 6 8 17 29 24 45 8 17 23 41 33 55 24 31 53 89 53 106 0 7 4 14 9 16 14 5
121 237 181 393 16 43 83 243 102 305 52 177 94 355 133 575 9 50 20 106 25
125 24 93 44 267 59 505 6 94 15 188 20 210 6 22 13 95 17 163 4 67 9 122 12
122 3 0 33 -13 67 -29z m255 -203 c0 -18 98 -118 114 -118 8 0 56 -43 109 -96
l94 -97 7 -96 c6 -104 0 -205 -15 -232 -5 -10 -9 -27 -9 -38 0 -38 -39 -90
-67 -91 -9 0 -13 18 -13 59 0 91 -19 158 -52 187 -27 22 -111 174 -150 269
-29 71 -50 157 -44 181 3 12 2 26 -4 29 -5 3 -10 17 -10 31 0 17 5 24 20 24
11 0 20 -6 20 -12z m4190 -356 c0 -4 17 -27 38 -51 48 -57 211 -164 348 -231
99 -48 210 -117 247 -155 16 -16 31 -164 25 -244 l-3 -45 -29 27 c-16 15 -35
27 -43 27 -7 0 -21 4 -31 10 -24 13 -163 52 -168 47 -3 -3 -37 2 -77 9 -40 8
-85 14 -102 14 -16 1 -44 9 -61 18 -35 19 -94 67 -94 77 0 3 -11 30 -24 58
-32 70 -45 143 -47 257 -2 153 0 190 11 190 6 0 10 -4 10 -8z m-2462 -357 c17
-14 34 -40 37 -58 10 -42 21 -56 66 -74 42 -16 72 -51 112 -128 45 -85 45
-109 4 -150 -19 -19 -49 -38 -66 -41 -56 -11 -59 -30 -13 -77 57 -57 92 -97
92 -103 0 -11 -31 -64 -37 -64 -4 0 -23 11 -43 25 -20 14 -87 47 -149 75 -62
27 -119 55 -128 61 -24 20 -42 63 -41 99 1 25 -5 38 -23 49 -81 52 -134 152
-109 210 7 18 44 52 93 87 45 32 98 71 117 86 42 34 51 35 88 3z m1629 -1
c111 -61 229 -156 413 -332 94 -89 104 -102 92 -119 -6 -10 -20 -34 -29 -53
-10 -19 -18 -36 -19 -38 -4 -6 -79 29 -97 46 -11 9 -28 36 -38 59 -22 51 -50
66 -153 83 -104 16 -153 38 -200 90 -65 72 -122 224 -103 274 10 26 79 20 134
-10z m-2804 -26 c-6 -7 -17 -45 -26 -84 -24 -110 -89 -276 -109 -282 -10 -2
-18 -12 -18 -22 0 -10 -13 -23 -30 -30 -16 -7 -30 -16 -30 -21 0 -5 -9 -9 -19
-9 -11 0 -22 -3 -24 -7 -12 -19 -240 -123 -300 -137 -23 -6 -29 -3 -38 21 -17
45 6 259 32 301 8 12 21 22 30 22 8 0 19 3 23 7 10 11 79 33 102 33 12 0 27 7
34 15 7 8 33 21 59 29 25 7 74 28 107 45 34 17 65 31 68 31 9 0 69 45 110 82
29 27 48 31 29 6z m2517 4 c0 -25 -97 -166 -142 -207 -62 -56 -110 -78 -230
-107 l-88 -21 -31 -62 c-38 -78 -74 -113 -169 -164 -78 -42 -318 -133 -331
-126 -12 8 -39 72 -39 94 0 25 53 79 97 97 17 8 35 19 38 24 4 6 -21 37 -54
68 -34 32 -61 62 -61 69 0 6 20 33 44 60 34 38 57 53 101 67 42 13 61 25 73
47 41 71 220 124 462 135 80 3 181 12 225 19 105 16 105 16 105 7z m124 -208
c70 -136 155 -196 312 -217 l87 -12 19 -42 c24 -54 85 -106 158 -133 50 -19
64 -20 93 -10 40 12 44 19 53 90 4 27 10 50 13 50 18 0 246 -266 278 -325 15
-26 -30 -120 -54 -111 -8 4 -81 9 -162 13 -120 5 -161 3 -225 -12 -76 -16 -79
-16 -90 1 -10 19 -10 134 0 187 6 29 -17 67 -41 67 -18 0 -43 -32 -75 -96 -39
-78 -39 -110 0 -132 23 -13 30 -24 30 -48 0 -19 8 -38 21 -50 21 -19 83 -140
140 -277 36 -86 76 -250 85 -347 l6 -75 -83 88 c-78 84 -176 160 -264 205 -46
23 -220 92 -233 92 -5 0 -28 13 -53 29 -324 210 -504 317 -726 430 -57 29
-103 56 -103 59 1 11 260 196 488 349 79 54 112 82 112 96 0 10 22 44 50 74
27 29 62 72 77 93 15 22 33 40 38 40 6 0 28 -34 49 -76z m-1881 -81 c-13 -99
-58 -164 -141 -205 -65 -33 -102 -70 -102 -104 0 -33 -79 -114 -110 -114 -11
0 -20 2 -20 5 0 6 69 106 112 164 15 20 36 49 47 64 26 40 201 227 211 227 5
0 6 -17 3 -37z m744 -122 l32 -38 -43 -46 -44 -46 -41 39 -40 38 34 21 c20 11
40 32 47 46 6 14 14 25 17 24 3 0 20 -18 38 -38z m638 -31 c-4 -6 -25 -20 -47
-31 l-41 -21 24 30 c14 18 34 31 47 31 13 1 20 -3 17 -9z m-246 -176 c-7 -9
-36 -31 -64 -50 -110 -76 -150 -106 -159 -122 -11 -21 -37 -41 -51 -41 -5 0
-18 6 -28 14 -18 13 -16 16 23 52 35 33 258 160 284 162 5 1 2 -6 -5 -15z
m1964 -37 c34 -17 73 -34 87 -35 14 -2 29 -8 35 -13 5 -5 20 -9 35 -9 67 -1
211 -66 228 -105 16 -35 15 -42 -9 -66 -20 -20 -59 -19 -59 2 0 5 -3 8 -7 7
-13 -3 -53 13 -53 21 0 15 -45 57 -73 69 -15 7 -55 12 -87 12 l-60 0 0 -53 c0
-47 3 -55 31 -77 17 -14 39 -32 48 -41 9 -9 33 -22 53 -28 21 -7 40 -17 43
-22 4 -5 14 -9 24 -9 14 0 17 -6 13 -30 -7 -52 7 -80 75 -147 64 -64 65 -65
59 -106 -4 -23 -18 -61 -31 -83 -27 -45 -114 -124 -137 -124 -8 0 -28 -6 -44
-14 -25 -13 -194 -38 -194 -29 0 1 17 11 38 22 34 18 95 72 133 118 32 39 69
128 69 165 0 26 -33 45 -89 51 -30 4 -57 10 -60 15 -3 5 -27 21 -54 36 -26 16
-52 37 -58 48 -6 11 -20 31 -32 45 -25 29 -28 42 -12 63 7 8 26 43 43 78 27
54 30 70 25 115 -3 29 -13 60 -21 70 -14 15 -13 17 1 17 13 0 11 6 -8 26 -24
25 -32 44 -20 44 3 0 34 -15 68 -33z m-2373 -96 c0 -7 -9 -21 -20 -33 -11 -12
-20 -28 -20 -35 0 -21 -24 -14 -44 14 -15 20 -17 29 -7 42 6 9 18 30 27 48
l17 31 23 -28 c13 -15 24 -33 24 -39z m512 -193 c32 -21 60 -38 62 -38 3 0 31
-17 63 -39 74 -49 326 -201 376 -226 58 -30 62 -39 22 -61 l-35 -19 -47 25
c-26 14 -92 54 -148 89 -137 87 -425 260 -513 307 -39 22 -72 41 -72 44 0 3
15 15 33 26 l32 22 85 -46 c47 -25 111 -62 142 -84z m-2148 65 c3 -21 9 -48
12 -60 6 -20 3 -23 -22 -23 -27 -1 -74 -29 -74 -45 0 -4 -27 -32 -60 -62 -65
-60 -75 -79 -65 -123 6 -27 9 -29 38 -23 18 3 36 10 41 14 6 5 18 9 28 9 10 0
18 5 18 10 0 6 15 9 33 9 20 -1 25 -3 12 -6 -44 -10 -145 -64 -155 -82 -16
-31 -12 -65 10 -81 25 -18 26 -40 1 -40 -10 0 -24 -6 -30 -13 -6 -8 -28 -22
-49 -31 -21 -10 -46 -30 -55 -46 -23 -38 -33 -140 -17 -170 12 -22 11 -22 -25
-16 -50 10 -69 23 -90 61 -24 45 -14 69 56 137 52 50 59 61 59 96 0 33 -6 45
-37 71 -20 17 -48 34 -61 38 -18 4 -22 10 -18 27 3 11 6 29 6 39 0 19 116 137
135 137 6 0 24 11 40 25 38 32 166 115 178 115 4 0 5 -4 2 -10 -3 -5 3 -10 14
-10 14 0 21 9 26 33 16 74 38 83 49 20z m296 20 c0 -15 -42 -93 -51 -93 -14 0
-11 17 11 60 18 35 40 53 40 33z m1347 -111 c17 -2 40 -14 50 -26 20 -22 53
-128 53 -170 0 -36 -20 -75 -42 -81 -10 -4 -18 -16 -18 -28 0 -30 -11 -44 -43
-56 -40 -15 -150 20 -175 57 -57 81 -53 176 10 248 37 41 97 76 118 67 8 -3
29 -8 47 -11z m2033 -40 c0 -22 -52 -32 -118 -22 -37 5 -101 10 -142 10 -52 0
-70 3 -60 10 18 12 320 13 320 2z m-2315 -39 c-8 -47 -28 -69 -102 -113 -66
-39 -234 -162 -253 -185 -16 -19 -50 -20 -50 0 0 15 52 66 160 157 77 65 231
177 244 178 4 0 5 -17 1 -37z m2175 -60 c0 -10 -71 -93 -80 -93 -7 0 -60 85
-60 96 0 6 36 9 86 6 30 -2 54 -6 54 -9z m20 -138 c0 -2 -10 -10 -22 -16 -21
-11 -22 -11 -9 4 13 16 31 23 31 12z m864 -454 c19 -20 27 -37 24 -57 -7 -60
-42 -28 -63 59 -9 35 4 34 39 -2z"/>
<path d="M6912 7349 c2 -7 10 -15 17 -17 8 -3 12 1 9 9 -2 7 -10 15 -17 17 -8
3 -12 -1 -9 -9z"/>
<path d="M6915 7260 c-6 -9 1 -14 18 -11 8 1 9 -5 9 -69 l0 -45 7 45 c9 60
-14 113 -34 80z"/>
<path d="M6975 7240 c3 -5 8 -10 11 -10 2 0 4 5 4 10 0 6 -5 10 -11 10 -5 0
-7 -4 -4 -10z"/>
<path d="M7293 6813 c9 -2 23 -2 30 0 6 3 -1 5 -18 5 -16 0 -22 -2 -12 -5z"/>
<path d="M7200 6770 c0 -6 7 -10 15 -10 8 0 15 2 15 4 0 2 -7 6 -15 10 -8 3
-15 1 -15 -4z"/>
<path d="M7056 6729 c2 -4 -2 -10 -8 -13 -7 -3 5 -3 27 1 61 9 72 20 21 20
-25 0 -43 -4 -40 -8z"/>
<path d="M7000 6470 c0 -5 7 -10 16 -10 8 0 12 5 9 10 -3 6 -10 10 -16 10 -5
0 -9 -4 -9 -10z"/>
<path d="M7440 6254 c0 -13 18 -39 24 -34 2 3 -2 14 -10 24 -8 11 -14 16 -14
10z"/>
<path d="M2271 6004 c0 -11 3 -14 6 -6 3 7 2 16 -1 19 -3 4 -6 -2 -5 -13z"/>
<path d="M2261 5914 c0 -11 3 -14 6 -6 3 7 2 16 -1 19 -3 4 -6 -2 -5 -13z"/>
<path d="M5705 5790 c-3 -5 -1 -10 4 -10 6 0 11 5 11 10 0 6 -2 10 -4 10 -3 0
-8 -4 -11 -10z"/>
<path d="M2855 5423 c-16 -2 -77 -15 -135 -29 l-105 -26 -2 -33 c-5 -69 41
-79 148 -33 20 9 47 19 60 23 53 16 99 46 99 63 0 18 -19 43 -29 41 -4 -1 -19
-4 -36 -6z"/>
<path d="M5463 5228 c-27 -13 -29 -39 -7 -73 19 -29 77 -65 106 -65 12 0 47
-9 79 -21 70 -26 110 -18 115 23 2 24 -7 31 -119 87 -127 64 -137 67 -174 49z"/>
<path d="M3720 4969 c0 -5 5 -7 10 -4 6 3 10 8 10 11 0 2 -4 4 -10 4 -5 0 -10
-5 -10 -11z"/>
<path d="M6882 3510 c0 -14 2 -19 5 -12 2 6 2 18 0 25 -3 6 -5 1 -5 -13z"/>
<path d="M1602 3290 c0 -19 2 -27 5 -17 2 9 2 25 0 35 -3 9 -5 1 -5 -18z"/>
<path d="M1535 6790 c-3 -5 -1 -10 4 -10 6 0 11 5 11 10 0 6 -2 10 -4 10 -3 0
-8 -4 -11 -10z"/>
<path d="M1560 6766 c0 -8 -6 -16 -12 -19 -7 -3 -4 -5 8 -4 15 1 20 6 16 19
-5 22 -12 24 -12 4z"/>
<path d="M1321 6714 c0 -11 3 -14 6 -6 3 7 2 16 -1 19 -3 4 -6 -2 -5 -13z"/>
<path d="M1673 6618 c3 -19 -2 -29 -17 -37 -20 -11 -20 -11 2 -7 19 4 21 2 12
-10 -10 -11 -7 -16 14 -25 14 -7 29 -10 32 -7 3 4 -6 30 -21 60 -17 35 -24 44
-22 26z"/>
<path d="M1285 6620 c2 -4 30 -8 62 -9 32 -1 55 1 51 4 -8 9 -118 14 -113 5z"/>
<path d="M1448 6603 c6 -2 18 -2 25 0 6 3 1 5 -13 5 -14 0 -19 -2 -12 -5z"/>
<path d="M990 6070 c-13 -8 -12 -10 3 -10 9 0 17 5 17 10 0 12 -1 12 -20 0z"/>
<path d="M1042 6040 c0 -14 2 -19 5 -12 2 6 2 18 0 25 -3 6 -5 1 -5 -13z"/>
<path d="M938 5933 c7 -3 16 -2 19 1 4 3 -2 6 -13 5 -11 0 -14 -3 -6 -6z"/>
<path d="M2685 4568 c-148 -17 -324 -92 -421 -180 -37 -34 -135 -191 -160
-258 -14 -36 -18 -79 -18 -210 -1 -145 2 -173 22 -234 56 -171 138 -265 300
-342 138 -66 225 -80 375 -60 193 25 339 89 438 193 68 70 86 104 135 253 32
99 38 128 38 205 0 178 -76 349 -213 478 -81 76 -182 129 -292 152 -81 16 -87
17 -204 3z m278 -191 c175 -87 271 -245 283 -472 l7 -112 -44 -82 c-89 -167
-235 -265 -448 -301 -129 -22 -268 10 -372 85 -27 19 -52 35 -57 35 -4 0 -26
22 -49 49 -65 75 -85 135 -91 269 -5 118 6 179 49 279 23 55 109 147 169 181
25 14 52 31 60 37 19 15 114 52 165 64 22 6 88 9 147 7 100 -2 112 -5 181 -39z"/>
<path d="M3530 3224 c-85 -15 -101 -24 -120 -70 -21 -49 -60 -228 -60 -276 0
-100 96 -143 393 -173 140 -15 177 -25 177 -50 0 -8 5 -37 11 -66 15 -68 62
-120 136 -150 51 -20 61 -21 112 -11 101 21 175 108 192 223 40 285 44 405 14
439 -71 79 -301 127 -640 135 -104 2 -201 2 -215 -1z m405 -139 c150 -16 278
-41 319 -62 28 -15 28 -15 21 -81 -4 -37 -13 -98 -20 -137 -7 -38 -17 -101
-21 -139 -7 -76 -29 -109 -78 -122 -67 -17 -114 31 -126 131 -6 45 -15 74 -28
87 -24 24 -79 37 -157 38 -33 0 -89 10 -125 21 -36 11 -85 24 -110 29 -88 17
-131 28 -136 33 -3 3 -2 56 2 117 l7 113 161 -7 c89 -3 220 -13 291 -21z"/>
<path d="M6520 1000 c0 -5 5 -10 11 -10 5 0 7 5 4 10 -3 6 -8 10 -11 10 -2 0
-4 -4 -4 -10z"/>
</g>
</svg>
